<svg xmlns="http://www.w3.org/2000/svg" width="252.214" height="52.745" viewBox="0 0 252.214 52.745">
  <g id="Group_53846" data-name="Group 53846" transform="translate(-47.796 -25.703)">
    <path id="Path_55388" data-name="Path 55388" d="M-11309.461-3188.786s-14.877-10.059-21.059-5.79-8.439,10.156-10.681,14.177-6.2,12.084-12.167,15.369-13.024,2.884-18.483,1.25-13.354-8.93-13.354-8.93l26.231-27.754,8.766,8.785,19.688-21.618Z" transform="translate(11433 3239)" fill="#ebb040"/>
    <path id="Path_55402" data-name="Path 55402" d="M-104.51-19.992-108.71,0h4.4l1.82-8.624H-94.4L-96.222,0H-91.8l4.228-19.992h-4.424l-1.624,7.672h-8.092l1.624-7.672Zm20.748,0L-87.962,0h4.4l4.228-19.992Zm8.232,0L-79.674,0h4.4l1.316-6.328,3.052-2.66L-66.346,0h4.956l-6.132-11.76,9.6-8.232h-5.824l-9.072,8.372h-.056l1.736-8.372Zm20.272,0L-59.458,0h4.4l4.228-19.992Zm8.288,0L-51.17,0h4.088l2.856-14.028h.056L-38.682,0h4.4l4.228-19.992H-34.09L-36.946-5.768H-37l-5.432-14.224ZM-15.33-2.044V0h2.772l2.3-10.808h-8.484l-.7,3.276h4.62a8.917,8.917,0,0,1-.714,1.75,4.73,4.73,0,0,1-1.092,1.358,4.927,4.927,0,0,1-1.568.882,6.522,6.522,0,0,1-2.17.322,4.624,4.624,0,0,1-2.058-.42,3.9,3.9,0,0,1-1.4-1.134,4.9,4.9,0,0,1-.812-1.638,7.053,7.053,0,0,1-.266-1.96,11.533,11.533,0,0,1,.392-2.926,9.137,9.137,0,0,1,1.19-2.716A6.5,6.5,0,0,1-21.28-16a5.453,5.453,0,0,1,2.926-.77,4.88,4.88,0,0,1,2.912.77,3.208,3.208,0,0,1,1.148,2.618h4.4a6.974,6.974,0,0,0-.672-3.178,6.24,6.24,0,0,0-1.82-2.2,7.813,7.813,0,0,0-2.688-1.288,12.514,12.514,0,0,0-3.3-.42,10.331,10.331,0,0,0-4.55.98,10.374,10.374,0,0,0-3.444,2.646,11.9,11.9,0,0,0-2.17,3.85,14.024,14.024,0,0,0-.756,4.62q0,4.284,2.31,6.552A8.979,8.979,0,0,0-20.426.448a6.793,6.793,0,0,0,2.744-.574,5.642,5.642,0,0,0,2.3-1.918Zm6.8-2.268L-9.422,0h4.4L-4.1-4.312Zm11.34-15.68L-1.386,0h4.4L4.83-8.624h8.092L11.1,0h4.424l4.228-19.992H15.33L13.706-12.32H5.614l1.624-7.672Zm20.748,0L19.362,0h4.4l4.228-19.992ZM42.742-2.044V0h2.772l2.3-10.808H39.326l-.7,3.276h4.62a8.917,8.917,0,0,1-.714,1.75A4.73,4.73,0,0,1,41.44-4.424a4.927,4.927,0,0,1-1.568.882,6.522,6.522,0,0,1-2.17.322,4.624,4.624,0,0,1-2.058-.42,3.9,3.9,0,0,1-1.4-1.134,4.9,4.9,0,0,1-.812-1.638,7.053,7.053,0,0,1-.266-1.96,11.533,11.533,0,0,1,.392-2.926,9.137,9.137,0,0,1,1.19-2.716A6.5,6.5,0,0,1,36.792-16a5.453,5.453,0,0,1,2.926-.77A4.88,4.88,0,0,1,42.63-16a3.208,3.208,0,0,1,1.148,2.618h4.4a6.974,6.974,0,0,0-.672-3.178,6.24,6.24,0,0,0-1.82-2.2,7.813,7.813,0,0,0-2.688-1.288,12.514,12.514,0,0,0-3.3-.42,10.331,10.331,0,0,0-4.55.98A10.374,10.374,0,0,0,31.7-16.842a11.9,11.9,0,0,0-2.17,3.85,14.024,14.024,0,0,0-.756,4.62q0,4.284,2.31,6.552A8.979,8.979,0,0,0,37.646.448,6.793,6.793,0,0,0,40.39-.126a5.642,5.642,0,0,0,2.3-1.918ZM53.1-19.992,48.9,0h4.4l1.82-8.624H63.21L61.39,0h4.424l4.228-19.992H65.618L63.994-12.32H55.9l1.624-7.672Zm20.72,0L69.65,0h15.4l.784-3.7H74.8l1.036-4.9H85.89l.728-3.416H76.566l.9-4.284H88.326l.756-3.7Zm21.2,9.044,1.176-5.628h4.172a8.71,8.71,0,0,1,1.232.084,2.943,2.943,0,0,1,1.036.336,1.826,1.826,0,0,1,.714.742,2.731,2.731,0,0,1,.266,1.3,2.656,2.656,0,0,1-.378,1.442,2.981,2.981,0,0,1-1.008.98,4.839,4.839,0,0,1-1.442.56,7.79,7.79,0,0,1-1.708.182ZM92.5-19.992,88.326,0h4.368l1.652-7.812H98.49a6.511,6.511,0,0,1,1.176.1,2.163,2.163,0,0,1,.91.378,1.861,1.861,0,0,1,.588.742,2.892,2.892,0,0,1,.21,1.19,18.622,18.622,0,0,1-.112,2.03,18.622,18.622,0,0,0-.112,2.03,3.834,3.834,0,0,0,.056.658q.056.322.14.686h4.284a4.072,4.072,0,0,1-.224-1.05q-.056-.6-.056-1.274,0-.924.07-1.862t.07-1.61a5.389,5.389,0,0,0-.42-2.17,2.5,2.5,0,0,0-1.652-1.358V-9.38A5.147,5.147,0,0,0,105.266-10a5.463,5.463,0,0,0,1.456-1.19,5.206,5.206,0,0,0,.952-1.638,5.609,5.609,0,0,0,.336-1.932,6.411,6.411,0,0,0-.42-2.464,4.058,4.058,0,0,0-1.2-1.638,4.739,4.739,0,0,0-1.89-.9,9.621,9.621,0,0,0-2.45-.238Z" transform="translate(192 78)" fill="#4e3b2c"/>
  </g>
</svg>
