<svg xmlns="http://www.w3.org/2000/svg" width="24.801" height="23.793" viewBox="0 0 24.801 23.793">
  <path id="Path_55390" data-name="Path 55390" d="M25.743,11.6a1.193,1.193,0,0,0-1.007-1.354L18,9.256,14.983,3.118a1.237,1.237,0,0,0-2.142,0L9.831,9.256l-6.74.985a1.193,1.193,0,0,0-.663,2.032L7.309,17.06,6.157,23.815A1.191,1.191,0,0,0,7.89,25.07l6.023-3.184,6.022,3.183a1.192,1.192,0,0,0,1.734-1.253L20.517,17.06,25.4,12.273A1.194,1.194,0,0,0,25.743,11.6Zm-6.284,4.83a.6.6,0,0,0-.171.526l1.2,7.062-6.3-3.331a.6.6,0,0,0-.557,0l-6.3,3.332,1.2-7.063a.6.6,0,0,0-.171-.526l-5.1-5,7.051-1.031a.6.6,0,0,0,.45-.328l3.149-6.419,3.149,6.419a.6.6,0,0,0,.45.328l7.052,1.03Z" transform="translate(-1.468 -1.916)" fill="#fff" stroke="#fff" stroke-width="1"/>
</svg>
